<?xml version="1.0" encoding="UTF-8"?>
<svg width="72px" height="72px" viewBox="0 0 72 72" version="1.1" xmlns="http://www.w3.org/2000/svg" xmlns:xlink="http://www.w3.org/1999/xlink">
    <!-- Generator: Sketch 42 (36781) - http://www.bohemiancoding.com/sketch -->
    <title>便捷性</title>
    <desc>Created with Sketch.</desc>
    <defs></defs>
    <g id="开户系统h5--2" stroke="none" stroke-width="1" fill="none" fill-rule="evenodd">
        <g id="办卡-开户结果" transform="translate(-88.000000, -648.000000)">
            <g id="便捷性" transform="translate(60.000000, 648.000000)">
                <path d="M30,6 L30,61.0020814 C30,63.2095772 31.7884227,65 33.9922657,65 L79.0077343,65 C81.20677,65 83,63.2069325 83,61.0020814 L83,6 L30,6 Z M28,4 L85,4 L85,61.0020814 C85,64.3146404 82.3082008,67 79.0077343,67 L33.9922657,67 C30.6828287,67 28,64.3131223 28,61.0020814 L28,4 Z" id="Rectangle-2" fill="#383838" fill-rule="nonzero"></path>
                <rect id="Rectangle-10" fill="#DEDEDE" x="38" y="18" width="38" height="4"></rect>
                <rect id="Rectangle-10" fill="#DEDEDE" x="38" y="27" width="38" height="4"></rect>
                <rect id="Rectangle-10" fill="#DEDEDE" x="38" y="36" width="38" height="4"></rect>
                <rect id="Rectangle-10" fill="#DEDEDE" x="38" y="45" width="38" height="4"></rect>
                <rect id="Rectangle-10" fill="#DEDEDE" x="38" y="54" width="38" height="4"></rect>
                <rect id="Rectangle-8" fill="#383838" x="29" y="11" width="55" height="2"></rect>
                <rect id="Rectangle-9" fill="#D5D6D7" x="30" y="6" width="53" height="5"></rect>
                <path d="M95.9000083,33 L63.0999735,33 C61.985146,33 61.0000092,34.0817507 61.0000092,35.5010668 L61,57.4991019 C61,58.9182609 61.9851531,60 63.0999642,60 L95.9000083,60 C97.0149842,60 98,58.9179028 98,57.4958431 L98.0000092,35.5010831 C98.000004,34.0818123 97.0147837,33 95.9000083,33 Z M95.9000083,31 C98.1636656,31 100,33.0172637 100.000009,35.5010758 L100,57.495844 C100,59.9827461 98.1636564,62 95.9000083,62 L63.0999642,62 C60.836206,62 59,59.9827363 59,57.4991019 L59.0000092,35.501066 C59.0000092,33.0172637 60.8362061,31 63.0999735,31 L95.9000083,31 Z" id="Shape" fill="#383838" fill-rule="nonzero"></path>
                <path d="M95.9000083,33 L63.0999735,33 C61.985146,33 61.0000092,34.0817507 61.0000092,35.5010668 L61,57.4991019 C61,58.9182609 61.9851531,60 63.0999642,60 L95.9000083,60 C97.0149842,60 98,58.9179028 98,57.4958431 L98.0000092,35.5010831 C98.000004,34.0818123 97.0147837,33 95.9000083,33 Z" id="Shape" fill="#FFFFFF" fill-rule="nonzero"></path>
                <path d="M85.3395763,62 L77.3759058,62 C77.3759058,62 75.7775125,66.6014029 71,66.6014029 L71,68.9039641 L91.7120113,68.9039641 L91.7120113,66.6014029 C86.9309632,66.6014029 85.3395763,62 85.3395763,62 Z" id="Path" fill="#383838"></path>
                <polygon id="Path" fill="#23A9F6" points="78.9156993 52.3133122 76.6873468 54.540659 74.4578844 52.3133122 70 47.8551296 72.2283526 45.6269297 76.6865699 50.0834129 87.7708844 39 90 41.228304"></polygon>
            </g>
        </g>
    </g>
</svg>